<?xml version="1.0" encoding="UTF-8"?>
<!DOCTYPE svg PUBLIC "-//W3C//DTD SVG 1.1//EN" "http://www.w3.org/Graphics/SVG/1.1/DTD/svg11.dtd">
<svg xmlns="http://www.w3.org/2000/svg" version="1.1" width="144px" height="144px" style="shape-rendering:geometricPrecision; text-rendering:geometricPrecision; image-rendering:optimizeQuality; fill-rule:evenodd; clip-rule:evenodd" xmlns:xlink="http://www.w3.org/1999/xlink">
<g><path style="opacity:0.954" fill="#ffc211" d="M 58.5,-0.5 C 67.5,-0.5 76.5,-0.5 85.5,-0.5C 114.78,6.77846 134.113,24.7785 143.5,53.5C 143.5,65.8333 143.5,78.1667 143.5,90.5C 134.833,117.167 117.167,134.833 90.5,143.5C 78.1667,143.5 65.8333,143.5 53.5,143.5C 24.7785,134.113 6.77846,114.78 -0.5,85.5C -0.5,76.5 -0.5,67.5 -0.5,58.5C 7.5,27.1667 27.1667,7.5 58.5,-0.5 Z"/></g>
<g><path style="opacity:1" fill="#ffe8a6" d="M 88.5,28.5 C 81.7362,28.3874 75.0696,29.0541 68.5,30.5C 69.6808,28.9328 71.3474,28.0995 73.5,28C 78.6842,27.1837 83.6842,27.3503 88.5,28.5 Z"/></g>
<g><path style="opacity:1" fill="#fff9eb" d="M 88.5,28.5 C 96.4529,29.1556 103.786,31.6556 110.5,36C 118.078,41.8026 119.412,48.8026 114.5,57C 120.567,64.0611 121.067,71.5611 116,79.5C 114.736,81.607 112.903,82.607 110.5,82.5C 107.746,81.0541 104.746,80.0541 101.5,79.5C 97.8539,79.4234 94.5206,78.4234 91.5,76.5C 93.2611,74.7475 94.5944,72.7475 95.5,70.5C 95.1316,68.8247 94.1316,67.8247 92.5,67.5C 90.5379,65.9827 88.2046,65.3161 85.5,65.5C 82.5143,65.3817 79.8476,66.0483 77.5,67.5C 74.2559,69.0713 71.5892,71.4046 69.5,74.5C 71.5771,76.0818 73.9104,77.0818 76.5,77.5C 80.3309,79.5802 84.3309,81.4135 88.5,83C 81.8966,89.2987 74.2299,93.4654 65.5,95.5C 60.456,95.1725 55.456,95.5059 50.5,96.5C 50.6236,97.1067 50.9569,97.44 51.5,97.5C 52.9649,98.7368 54.6316,99.7368 56.5,100.5C 59.3035,101.638 62.3035,101.805 65.5,101C 66.056,100.617 66.3893,100.117 66.5,99.5C 68.5061,98.4892 70.5061,97.4892 72.5,96.5C 78.6553,98.1657 84.4886,100.499 90,103.5C 90.1626,105.387 89.3293,106.887 87.5,108C 70.4579,119.358 52.7913,120.358 34.5,111C 25.9942,104.984 23.6609,97.1508 27.5,87.5C 21.1794,79.612 21.0127,71.612 27,63.5C 36.3103,53.2951 46.1436,43.7951 56.5,35C 60.203,32.646 64.203,31.146 68.5,30.5C 75.0696,29.0541 81.7362,28.3874 88.5,28.5 Z"/></g>
<g><path style="opacity:1" fill="#ffe6a0" d="M 91.5,32.5 C 95.1621,32.7234 98.4954,33.7234 101.5,35.5C 97.8379,35.2766 94.5046,34.2766 91.5,32.5 Z"/></g>
<g><path style="opacity:1" fill="#ffc31d" d="M 91.5,32.5 C 94.5046,34.2766 97.8379,35.2766 101.5,35.5C 105.56,37.2965 109.06,39.9632 112,43.5C 113.584,55.8241 108.75,59.3241 97.5,54C 97.2734,51.631 97.1067,49.131 97,46.5C 90.9407,40.8355 83.7741,39.0022 75.5,41C 63.7657,49.3973 53.2657,59.2306 44,70.5C 42.8426,76.3509 45.0093,80.5176 50.5,83C 57.8107,85.5856 64.4774,84.419 70.5,79.5C 73.1667,80.8333 75.8333,82.1667 78.5,83.5C 79.7112,84.2739 79.7112,85.1072 78.5,86C 63.9861,92.9256 49.3195,93.259 34.5,87C 25.7523,79.3526 25.2523,71.1859 33,62.5C 41.3703,55.0302 49.5369,47.1969 57.5,39C 68.0638,33.0607 79.3972,30.894 91.5,32.5 Z"/></g>
<g><path style="opacity:1" fill="#ffc628" d="M 91.5,47.5 C 86.8333,48.1667 82.1667,48.8333 77.5,49.5C 75.1346,50.0084 72.8013,50.6751 70.5,51.5C 70.1667,51.1667 69.8333,50.8333 69.5,50.5C 73.633,45.3994 78.9663,43.5661 85.5,45C 87.8516,45.2401 89.8516,46.0735 91.5,47.5 Z"/></g>
<g><path style="opacity:1" fill="#ffda72" d="M 91.5,47.5 C 92.0431,47.56 92.3764,47.8933 92.5,48.5C 87.544,49.4941 82.544,49.8275 77.5,49.5C 82.1667,48.8333 86.8333,48.1667 91.5,47.5 Z"/></g>
<g><path style="opacity:1" fill="#ffc420" d="M 89.5,54.5 C 88.1153,55.3023 88.282,55.9689 90,56.5C 93.7175,58.0182 97.5508,59.0182 101.5,59.5C 104.118,59.7792 106.618,60.4459 109,61.5C 109.561,60.9781 110.228,60.6448 111,60.5C 115.216,63.4364 116.549,67.4364 115,72.5C 113.732,74.7173 112.232,76.7173 110.5,78.5C 107.03,77.0122 103.53,75.6789 100,74.5C 99.6667,71.8333 99.3333,69.1667 99,66.5C 91.3994,60.888 83.2328,60.0546 74.5,64C 68.8651,68.6335 63.5318,73.6335 58.5,79C 54.2071,80.2016 50.7071,79.0349 48,75.5C 47.3333,74.5 47.3333,73.5 48,72.5C 53.4497,66.0447 59.7831,60.7113 67,56.5C 74.4552,53.577 81.9552,52.9103 89.5,54.5 Z"/></g>
<g><path style="opacity:1" fill="#ffebb3" d="M 89.5,54.5 C 93.5,56.1667 97.5,57.8333 101.5,59.5C 97.5508,59.0182 93.7175,58.0182 90,56.5C 88.282,55.9689 88.1153,55.3023 89.5,54.5 Z"/></g>
<g><path style="opacity:1" fill="#ffd45a" d="M 92.5,67.5 C 87.5092,66.2477 82.5092,66.2477 77.5,67.5C 79.8476,66.0483 82.5143,65.3817 85.5,65.5C 88.2046,65.3161 90.5379,65.9827 92.5,67.5 Z"/></g>
<g><path style="opacity:1" fill="#ffcf4e" d="M 77.5,67.5 C 76.7659,68.7079 76.4326,70.0413 76.5,71.5C 73.5,71.1667 72.1667,72.5 72.5,75.5C 74.3797,75.2291 75.713,75.8958 76.5,77.5C 73.9104,77.0818 71.5771,76.0818 69.5,74.5C 71.5892,71.4046 74.2559,69.0713 77.5,67.5 Z"/></g>
<g><path style="opacity:1" fill="#ffdc7b" d="M 101.5,79.5 C 104.746,80.0541 107.746,81.0541 110.5,82.5C 107.008,82.554 104.008,81.554 101.5,79.5 Z"/></g>
<g><path style="opacity:1" fill="#ffc31e" d="M 30.5,90.5 C 35.2682,92.4466 40.2682,93.9466 45.5,95C 47.1131,98.9459 49.7798,101.946 53.5,104C 60.4672,105.195 67.1339,104.362 73.5,101.5C 76.6954,102.452 79.6954,103.785 82.5,105.5C 78.5365,108.27 74.2031,110.437 69.5,112C 60.0107,113.104 50.6774,112.438 41.5,110C 37.7587,108.262 34.592,105.762 32,102.5C 30.6463,98.6372 30.1463,94.6372 30.5,90.5 Z"/></g>
<g><path style="opacity:1" fill="#ffe69f" d="M 65.5,95.5 C 60.8333,96.1667 56.1667,96.8333 51.5,97.5C 50.9569,97.44 50.6236,97.1067 50.5,96.5C 55.456,95.5059 60.456,95.1725 65.5,95.5 Z"/></g>
<g><path style="opacity:1" fill="#ffe9ab" d="M 66.5,99.5 C 66.3893,100.117 66.056,100.617 65.5,101C 62.3035,101.805 59.3035,101.638 56.5,100.5C 59.9023,100.658 63.2356,100.324 66.5,99.5 Z"/></g>
</svg>
